<svg width="133" height="49" viewBox="0 0 133 49" fill="none" xmlns="http://www.w3.org/2000/svg">
<rect x="1" y="1.41235" width="130.68" height="46.2474" rx="23.1237" stroke="#EBEAED" stroke-width="2"/>
<path d="M39.3938 29.4124V18.2124H46.5138V19.5884H41.0898V23.0764H46.0338V24.4204H41.0898V28.0364H46.5138V29.4124H39.3938ZM47.7024 29.4124L50.5184 25.4444L47.7024 21.4764H49.5104L51.6384 24.5164L53.7504 21.4764H55.5744L52.7584 25.4444L55.5744 29.4124H53.7504L51.6384 26.3724L49.5104 29.4124H47.7024ZM56.9548 32.9324V21.4764H58.4748L58.6508 22.7084C58.9068 22.335 59.2588 22.0044 59.7068 21.7164C60.1548 21.4284 60.7308 21.2844 61.4348 21.2844C62.2028 21.2844 62.8801 21.4657 63.4668 21.8284C64.0535 22.191 64.5121 22.687 64.8428 23.3164C65.1841 23.9457 65.3548 24.6604 65.3548 25.4604C65.3548 26.2604 65.1841 26.975 64.8428 27.6044C64.5121 28.223 64.0535 28.7137 63.4668 29.0764C62.8801 29.4284 62.1975 29.6044 61.4188 29.6044C60.8001 29.6044 60.2508 29.4817 59.7708 29.2364C59.3015 28.991 58.9281 28.6444 58.6508 28.1964V32.9324H56.9548ZM61.1308 28.1324C61.8561 28.1324 62.4535 27.887 62.9228 27.3964C63.3921 26.895 63.6268 26.2444 63.6268 25.4444C63.6268 24.9217 63.5201 24.4577 63.3068 24.0524C63.0935 23.647 62.8001 23.3324 62.4268 23.1084C62.0535 22.8737 61.6215 22.7564 61.1308 22.7564C60.4055 22.7564 59.8081 23.007 59.3388 23.5084C58.8801 24.0097 58.6508 24.655 58.6508 25.4444C58.6508 26.2444 58.8801 26.895 59.3388 27.3964C59.8081 27.887 60.4055 28.1324 61.1308 28.1324ZM67.1892 29.4124V17.8924H68.8852V29.4124H67.1892ZM74.7449 29.6044C73.9876 29.6044 73.3049 29.4337 72.6969 29.0924C72.0996 28.7404 71.6249 28.255 71.2729 27.6364C70.9209 27.007 70.7449 26.2764 70.7449 25.4444C70.7449 24.6124 70.9209 23.887 71.2729 23.2684C71.6356 22.639 72.1209 22.1537 72.7289 21.8124C73.3369 21.4604 74.0143 21.2844 74.7609 21.2844C75.5183 21.2844 76.1956 21.4604 76.7929 21.8124C77.4009 22.1537 77.8809 22.639 78.2329 23.2684C78.5956 23.887 78.7769 24.6124 78.7769 25.4444C78.7769 26.2764 78.5956 27.007 78.2329 27.6364C77.8809 28.255 77.4009 28.7404 76.7929 29.0924C76.1849 29.4337 75.5023 29.6044 74.7449 29.6044ZM74.7449 28.1484C75.1503 28.1484 75.5236 28.047 75.8649 27.8444C76.2169 27.6417 76.4996 27.343 76.7129 26.9484C76.9263 26.543 77.0329 26.0417 77.0329 25.4444C77.0329 24.847 76.9263 24.351 76.7129 23.9564C76.5103 23.551 76.2329 23.247 75.8809 23.0444C75.5396 22.8417 75.1663 22.7404 74.7609 22.7404C74.3556 22.7404 73.9769 22.8417 73.6249 23.0444C73.2836 23.247 73.0063 23.551 72.7929 23.9564C72.5796 24.351 72.4729 24.847 72.4729 25.4444C72.4729 26.0417 72.5796 26.543 72.7929 26.9484C73.0063 27.343 73.2836 27.6417 73.6249 27.8444C73.9663 28.047 74.3396 28.1484 74.7449 28.1484ZM80.6111 29.4124V21.4764H82.1311L82.2751 22.9804C82.5524 22.4577 82.9364 22.047 83.4271 21.7484C83.9284 21.439 84.5311 21.2844 85.2351 21.2844V23.0604H84.7711C84.3017 23.0604 83.8804 23.1404 83.5071 23.3004C83.1444 23.4497 82.8511 23.711 82.6271 24.0844C82.4137 24.447 82.3071 24.9537 82.3071 25.6044V29.4124H80.6111ZM90.1824 29.6044C89.4038 29.6044 88.7104 29.4337 88.1024 29.0924C87.5051 28.7404 87.0358 28.255 86.6944 27.6364C86.3531 27.0177 86.1824 26.2977 86.1824 25.4764C86.1824 24.6444 86.3478 23.9137 86.6784 23.2844C87.0198 22.655 87.4891 22.1644 88.0864 21.8124C88.6944 21.4604 89.3984 21.2844 90.1984 21.2844C90.9771 21.2844 91.6544 21.4604 92.2304 21.8124C92.8064 22.1537 93.2544 22.6124 93.5744 23.1884C93.8944 23.7644 94.0544 24.399 94.0544 25.0924C94.0544 25.199 94.0491 25.3164 94.0384 25.4444C94.0384 25.5617 94.0331 25.695 94.0224 25.8444H87.8464C87.8998 26.6124 88.1504 27.199 88.5984 27.6044C89.0571 27.999 89.5851 28.1964 90.1824 28.1964C90.6624 28.1964 91.0624 28.0897 91.3824 27.8764C91.7131 27.6524 91.9584 27.3537 92.1184 26.9804H93.8144C93.6011 27.727 93.1744 28.351 92.5344 28.8524C91.9051 29.3537 91.1211 29.6044 90.1824 29.6044ZM90.1824 22.6764C89.6171 22.6764 89.1158 22.847 88.6784 23.1884C88.2411 23.519 87.9744 24.0204 87.8784 24.6924H92.3584C92.3264 24.0737 92.1078 23.583 91.7024 23.2204C91.2971 22.8577 90.7904 22.6764 90.1824 22.6764Z" fill="#1E0E62"/>
</svg>
