<svg width="861" height="16" viewBox="0 0 861 16" fill="none" xmlns="http://www.w3.org/2000/svg">
<path d="M4.752 12.192C3.93067 12.192 3.216 12.0427 2.608 11.744C2 11.4453 1.53067 11.0293 1.2 10.496C0.869333 9.96267 0.704 9.344 0.704 8.64H2.112C2.112 9.07733 2.21333 9.48267 2.416 9.856C2.61867 10.2187 2.912 10.512 3.296 10.736C3.69067 10.9493 4.176 11.056 4.752 11.056C5.50933 11.056 6.096 10.8747 6.512 10.512C6.928 10.1493 7.136 9.696 7.136 9.152C7.136 8.704 7.04 8.34667 6.848 8.08C6.656 7.80267 6.39467 7.57867 6.064 7.408C5.744 7.23733 5.37067 7.088 4.944 6.96C4.528 6.832 4.09067 6.688 3.632 6.528C2.768 6.22933 2.128 5.86133 1.712 5.424C1.296 4.976 1.088 4.39467 1.088 3.68C1.07733 3.08267 1.216 2.55467 1.504 2.096C1.792 1.62667 2.19733 1.264 2.72 1.008C3.25333 0.741333 3.88267 0.608 4.608 0.608C5.32267 0.608 5.94133 0.741333 6.464 1.008C6.99733 1.27467 7.408 1.64267 7.696 2.112C7.99467 2.58133 8.14933 3.11467 8.16 3.712H6.752C6.752 3.40267 6.672 3.09867 6.512 2.8C6.352 2.49067 6.10667 2.24 5.776 2.048C5.456 1.856 5.05067 1.76 4.56 1.76C3.952 1.74933 3.45067 1.904 3.056 2.224C2.672 2.544 2.48 2.98667 2.48 3.552C2.48 4.032 2.61333 4.4 2.88 4.656C3.15733 4.912 3.54133 5.12533 4.032 5.296C4.52267 5.456 5.088 5.64267 5.728 5.856C6.26133 6.048 6.74133 6.272 7.168 6.528C7.59467 6.784 7.92533 7.11467 8.16 7.52C8.40533 7.92533 8.528 8.44267 8.528 9.072C8.528 9.60533 8.38933 10.112 8.112 10.592C7.83467 11.0613 7.41333 11.4453 6.848 11.744C6.29333 12.0427 5.59467 12.192 4.752 12.192ZM13.49 12C12.7647 12 12.194 11.824 11.778 11.472C11.362 11.12 11.154 10.4853 11.154 9.568V5.2H9.778V4.064H11.154L11.33 2.16H12.498V4.064H14.834V5.2H12.498V9.568C12.498 10.0693 12.5993 10.4107 12.802 10.592C13.0047 10.7627 13.362 10.848 13.874 10.848H14.706V12H13.49ZM19.1815 12.192C18.5202 12.192 17.9708 12.08 17.5335 11.856C17.0962 11.632 16.7708 11.3333 16.5575 10.96C16.3442 10.5867 16.2375 10.1813 16.2375 9.744C16.2375 8.93333 16.5468 8.30933 17.1655 7.872C17.7842 7.43467 18.6268 7.216 19.6935 7.216H21.8375V7.12C21.8375 6.42667 21.6562 5.904 21.2935 5.552C20.9308 5.18933 20.4455 5.008 19.8375 5.008C19.3148 5.008 18.8615 5.14133 18.4775 5.408C18.1042 5.664 17.8695 6.04267 17.7735 6.544H16.3975C16.4508 5.968 16.6428 5.48267 16.9735 5.088C17.3148 4.69333 17.7362 4.39467 18.2375 4.192C18.7388 3.97867 19.2722 3.872 19.8375 3.872C20.9468 3.872 21.7788 4.17067 22.3335 4.768C22.8988 5.35467 23.1815 6.13867 23.1815 7.12V12H21.9815L21.9015 10.576C21.6775 11.024 21.3468 11.408 20.9095 11.728C20.4828 12.0373 19.9068 12.192 19.1815 12.192ZM19.3895 11.056C19.9015 11.056 20.3388 10.9227 20.7015 10.656C21.0748 10.3893 21.3575 10.0427 21.5495 9.616C21.7415 9.18933 21.8375 8.74133 21.8375 8.272V8.256H19.8055C19.0162 8.256 18.4562 8.39467 18.1255 8.672C17.8055 8.93867 17.6455 9.27467 17.6455 9.68C17.6455 10.096 17.7948 10.432 18.0935 10.688C18.4028 10.9333 18.8348 11.056 19.3895 11.056ZM25.1978 12V4.064H26.4138L26.5258 5.584C26.7711 5.06133 27.1444 4.64533 27.6458 4.336C28.1471 4.02667 28.7658 3.872 29.5018 3.872V5.28H29.1338C28.6644 5.28 28.2324 5.36533 27.8378 5.536C27.4431 5.696 27.1284 5.97333 26.8938 6.368C26.6591 6.76267 26.5418 7.30667 26.5418 8V12H25.1978ZM34.1463 12C33.4209 12 32.8503 11.824 32.4343 11.472C32.0183 11.12 31.8103 10.4853 31.8103 9.568V5.2H30.4342V4.064H31.8103L31.9863 2.16H33.1543V4.064H35.4903V5.2H33.1543V9.568C33.1543 10.0693 33.2556 10.4107 33.4583 10.592C33.6609 10.7627 34.0183 10.848 34.5303 10.848H35.3623V12H34.1463ZM40.0938 12.192C39.1551 12.192 38.4084 11.9093 37.8538 11.344C37.2991 10.768 37.0218 9.888 37.0218 8.704V4.064H38.3658V8.56C38.3658 10.2133 39.0431 11.04 40.3978 11.04C41.0911 11.04 41.6618 10.7947 42.1098 10.304C42.5684 9.80267 42.7978 9.09333 42.7978 8.176V4.064H44.1418V12H42.9258L42.8298 10.576C42.5844 11.0773 42.2164 11.472 41.7258 11.76C41.2458 12.048 40.7018 12.192 40.0938 12.192ZM46.354 15.52V4.064H47.57L47.698 5.376C47.954 4.992 48.3167 4.64533 48.786 4.336C49.266 4.02667 49.874 3.872 50.61 3.872C51.3993 3.872 52.0873 4.05333 52.674 4.416C53.2607 4.77867 53.714 5.27467 54.034 5.904C54.3647 6.53333 54.53 7.248 54.53 8.048C54.53 8.848 54.3647 9.56267 54.034 10.192C53.714 10.8107 53.2553 11.3013 52.658 11.664C52.0713 12.016 51.3833 12.192 50.594 12.192C49.9433 12.192 49.362 12.0587 48.85 11.792C48.3487 11.5253 47.9647 11.152 47.698 10.672V15.52H46.354ZM50.45 11.024C50.9833 11.024 51.4527 10.9013 51.858 10.656C52.2633 10.4 52.5833 10.048 52.818 9.6C53.0527 9.152 53.17 8.62933 53.17 8.032C53.17 7.43467 53.0527 6.912 52.818 6.464C52.5833 6.016 52.2633 5.66933 51.858 5.424C51.4527 5.168 50.9833 5.04 50.45 5.04C49.9167 5.04 49.4473 5.168 49.042 5.424C48.6367 5.66933 48.3167 6.016 48.082 6.464C47.8473 6.912 47.73 7.43467 47.73 8.032C47.73 8.62933 47.8473 9.152 48.082 9.6C48.3167 10.048 48.6367 10.4 49.042 10.656C49.4473 10.9013 49.9167 11.024 50.45 11.024ZM60.7153 12V0.799999H67.5312V1.904H62.0593V5.84H66.7153V6.928H62.0593V12H60.7153ZM69.1821 12V4.064H70.3981L70.5101 5.584C70.7555 5.06133 71.1288 4.64533 71.6301 4.336C72.1315 4.02667 72.7501 3.872 73.4861 3.872V5.28H73.1181C72.6488 5.28 72.2168 5.36533 71.8221 5.536C71.4275 5.696 71.1128 5.97333 70.8781 6.368C70.6435 6.76267 70.5261 7.30667 70.5261 8V12H69.1821ZM77.6346 12.192C76.9733 12.192 76.424 12.08 75.9866 11.856C75.5493 11.632 75.224 11.3333 75.0106 10.96C74.7973 10.5867 74.6906 10.1813 74.6906 9.744C74.6906 8.93333 75 8.30933 75.6186 7.872C76.2373 7.43467 77.08 7.216 78.1466 7.216H80.2906V7.12C80.2906 6.42667 80.1093 5.904 79.7466 5.552C79.384 5.18933 78.8986 5.008 78.2906 5.008C77.768 5.008 77.3146 5.14133 76.9306 5.408C76.5573 5.664 76.3226 6.04267 76.2266 6.544H74.8506C74.904 5.968 75.096 5.48267 75.4266 5.088C75.768 4.69333 76.1893 4.39467 76.6906 4.192C77.192 3.97867 77.7253 3.872 78.2906 3.872C79.4 3.872 80.232 4.17067 80.7866 4.768C81.352 5.35467 81.6346 6.13867 81.6346 7.12V12H80.4346L80.3546 10.576C80.1306 11.024 79.8 11.408 79.3626 11.728C78.936 12.0373 78.36 12.192 77.6346 12.192ZM77.8426 11.056C78.3546 11.056 78.792 10.9227 79.1546 10.656C79.528 10.3893 79.8106 10.0427 80.0026 9.616C80.1946 9.18933 80.2906 8.74133 80.2906 8.272V8.256H78.2586C77.4693 8.256 76.9093 8.39467 76.5786 8.672C76.2586 8.93867 76.0986 9.27467 76.0986 9.68C76.0986 10.096 76.248 10.432 76.5466 10.688C76.856 10.9333 77.288 11.056 77.8426 11.056ZM83.6509 12V4.064H84.8669L84.9629 5.216C85.2189 4.78933 85.5602 4.45867 85.9869 4.224C86.4135 3.98933 86.8935 3.872 87.4269 3.872C88.0562 3.872 88.5949 4 89.0429 4.256C89.5015 4.512 89.8535 4.90133 90.0989 5.424C90.3762 4.944 90.7549 4.56533 91.2349 4.288C91.7255 4.01067 92.2535 3.872 92.8189 3.872C93.7682 3.872 94.5255 4.16 95.0909 4.736C95.6562 5.30133 95.9389 6.176 95.9389 7.36V12H94.6109V7.504C94.6109 6.68267 94.4455 6.064 94.1149 5.648C93.7842 5.232 93.3095 5.024 92.6909 5.024C92.0509 5.024 91.5175 5.27467 91.0909 5.776C90.6749 6.26667 90.4669 6.97067 90.4669 7.888V12H89.1229V7.504C89.1229 6.68267 88.9575 6.064 88.6269 5.648C88.2962 5.232 87.8215 5.024 87.2029 5.024C86.5735 5.024 86.0455 5.27467 85.6189 5.776C85.2029 6.26667 84.9949 6.97067 84.9949 7.888V12H83.6509ZM101.531 12.192C100.774 12.192 100.102 12.0213 99.5154 11.68C98.9287 11.328 98.4647 10.8427 98.1234 10.224C97.7927 9.60533 97.6274 8.87467 97.6274 8.032C97.6274 7.2 97.7927 6.47467 98.1234 5.856C98.454 5.22667 98.9127 4.74133 99.4994 4.4C100.097 4.048 100.785 3.872 101.563 3.872C102.331 3.872 102.993 4.048 103.547 4.4C104.113 4.74133 104.545 5.19467 104.843 5.76C105.142 6.32533 105.291 6.93333 105.291 7.584C105.291 7.70133 105.286 7.81867 105.275 7.936C105.275 8.05333 105.275 8.18667 105.275 8.336H98.9554C98.9874 8.944 99.126 9.45067 99.3714 9.856C99.6274 10.2507 99.942 10.5493 100.315 10.752C100.699 10.9547 101.105 11.056 101.531 11.056C102.086 11.056 102.55 10.928 102.923 10.672C103.297 10.416 103.569 10.0693 103.739 9.632H105.067C104.854 10.368 104.443 10.9813 103.835 11.472C103.238 11.952 102.47 12.192 101.531 12.192ZM101.531 5.008C100.891 5.008 100.321 5.20533 99.8194 5.6C99.3287 5.984 99.046 6.54933 98.9714 7.296H103.963C103.931 6.58133 103.686 6.02133 103.227 5.616C102.769 5.21067 102.203 5.008 101.531 5.008ZM108.36 12L106.04 4.064H107.384L109.064 10.288L110.92 4.064H112.44L114.312 10.288L115.976 4.064H117.336L115.016 12H113.64L111.688 5.456L109.736 12H108.36ZM122.142 12.192C121.395 12.192 120.723 12.0213 120.126 11.68C119.529 11.3387 119.054 10.8587 118.702 10.24C118.361 9.61067 118.19 8.87467 118.19 8.032C118.19 7.18933 118.366 6.45867 118.718 5.84C119.07 5.21067 119.545 4.72533 120.142 4.384C120.75 4.04267 121.427 3.872 122.174 3.872C122.921 3.872 123.593 4.04267 124.19 4.384C124.787 4.72533 125.257 5.21067 125.598 5.84C125.95 6.45867 126.126 7.18933 126.126 8.032C126.126 8.87467 125.95 9.61067 125.598 10.24C125.246 10.8587 124.766 11.3387 124.158 11.68C123.561 12.0213 122.889 12.192 122.142 12.192ZM122.142 11.04C122.601 11.04 123.027 10.928 123.422 10.704C123.817 10.48 124.137 10.144 124.382 9.696C124.627 9.248 124.75 8.69333 124.75 8.032C124.75 7.37067 124.627 6.816 124.382 6.368C124.147 5.92 123.833 5.584 123.438 5.36C123.043 5.136 122.622 5.024 122.174 5.024C121.715 5.024 121.289 5.136 120.894 5.36C120.499 5.584 120.179 5.92 119.934 6.368C119.689 6.816 119.566 7.37067 119.566 8.032C119.566 8.69333 119.689 9.248 119.934 9.696C120.179 10.144 120.494 10.48 120.878 10.704C121.273 10.928 121.694 11.04 122.142 11.04ZM127.995 12V4.064H129.211L129.323 5.584C129.568 5.06133 129.941 4.64533 130.443 4.336C130.944 4.02667 131.563 3.872 132.299 3.872V5.28H131.931C131.461 5.28 131.029 5.36533 130.635 5.536C130.24 5.696 129.925 5.97333 129.691 6.368C129.456 6.76267 129.339 7.30667 129.339 8V12H127.995ZM133.807 12V0.48H135.151V7.408L138.399 4.064H140.047L136.527 7.648L140.495 12H138.783L135.151 7.888V12H133.807ZM149.752 12.192C148.995 12.192 148.312 12.0213 147.704 11.68C147.107 11.328 146.632 10.8427 146.28 10.224C145.939 9.59467 145.768 8.864 145.768 8.032C145.768 7.2 145.939 6.47467 146.28 5.856C146.632 5.22667 147.107 4.74133 147.704 4.4C148.312 4.048 148.995 3.872 149.752 3.872C150.691 3.872 151.48 4.11733 152.12 4.608C152.771 5.09867 153.181 5.75467 153.352 6.576H151.976C151.869 6.08533 151.608 5.70667 151.192 5.44C150.776 5.16267 150.291 5.024 149.736 5.024C149.288 5.024 148.867 5.136 148.472 5.36C148.077 5.584 147.757 5.92 147.512 6.368C147.267 6.816 147.144 7.37067 147.144 8.032C147.144 8.69333 147.267 9.248 147.512 9.696C147.757 10.144 148.077 10.4853 148.472 10.72C148.867 10.944 149.288 11.056 149.736 11.056C150.291 11.056 150.776 10.9227 151.192 10.656C151.608 10.3787 151.869 9.98933 151.976 9.488H153.352C153.192 10.288 152.787 10.9387 152.136 11.44C151.485 11.9413 150.691 12.192 149.752 12.192ZM158.845 12.192C158.098 12.192 157.426 12.0213 156.829 11.68C156.232 11.3387 155.757 10.8587 155.405 10.24C155.064 9.61067 154.893 8.87467 154.893 8.032C154.893 7.18933 155.069 6.45867 155.421 5.84C155.773 5.21067 156.248 4.72533 156.845 4.384C157.453 4.04267 158.13 3.872 158.877 3.872C159.624 3.872 160.296 4.04267 160.893 4.384C161.49 4.72533 161.96 5.21067 162.301 5.84C162.653 6.45867 162.829 7.18933 162.829 8.032C162.829 8.87467 162.653 9.61067 162.301 10.24C161.949 10.8587 161.469 11.3387 160.861 11.68C160.264 12.0213 159.592 12.192 158.845 12.192ZM158.845 11.04C159.304 11.04 159.73 10.928 160.125 10.704C160.52 10.48 160.84 10.144 161.085 9.696C161.33 9.248 161.453 8.69333 161.453 8.032C161.453 7.37067 161.33 6.816 161.085 6.368C160.85 5.92 160.536 5.584 160.141 5.36C159.746 5.136 159.325 5.024 158.877 5.024C158.418 5.024 157.992 5.136 157.597 5.36C157.202 5.584 156.882 5.92 156.637 6.368C156.392 6.816 156.269 7.37067 156.269 8.032C156.269 8.69333 156.392 9.248 156.637 9.696C156.882 10.144 157.197 10.48 157.581 10.704C157.976 10.928 158.397 11.04 158.845 11.04ZM164.698 12V4.064H165.914L165.994 5.488C166.25 4.98667 166.618 4.592 167.098 4.304C167.578 4.016 168.122 3.872 168.73 3.872C169.668 3.872 170.415 4.16 170.97 4.736C171.535 5.30133 171.818 6.176 171.818 7.36V12H170.474V7.504C170.474 5.85067 169.791 5.024 168.426 5.024C167.743 5.024 167.172 5.27467 166.714 5.776C166.266 6.26667 166.042 6.97067 166.042 7.888V12H164.698ZM176.99 12C176.265 12 175.694 11.824 175.278 11.472C174.862 11.12 174.654 10.4853 174.654 9.568V5.2H173.278V4.064H174.654L174.83 2.16H175.998V4.064H178.334V5.2H175.998V9.568C175.998 10.0693 176.099 10.4107 176.302 10.592C176.505 10.7627 176.862 10.848 177.374 10.848H178.206V12H176.99ZM182.682 12.192C182.02 12.192 181.471 12.08 181.034 11.856C180.596 11.632 180.271 11.3333 180.058 10.96C179.844 10.5867 179.738 10.1813 179.738 9.744C179.738 8.93333 180.047 8.30933 180.666 7.872C181.284 7.43467 182.127 7.216 183.194 7.216H185.338V7.12C185.338 6.42667 185.156 5.904 184.794 5.552C184.431 5.18933 183.946 5.008 183.338 5.008C182.815 5.008 182.362 5.14133 181.978 5.408C181.604 5.664 181.37 6.04267 181.274 6.544H179.898C179.951 5.968 180.143 5.48267 180.474 5.088C180.815 4.69333 181.236 4.39467 181.738 4.192C182.239 3.97867 182.772 3.872 183.338 3.872C184.447 3.872 185.279 4.17067 185.834 4.768C186.399 5.35467 186.682 6.13867 186.682 7.12V12H185.482L185.402 10.576C185.178 11.024 184.847 11.408 184.41 11.728C183.983 12.0373 183.407 12.192 182.682 12.192ZM182.89 11.056C183.402 11.056 183.839 10.9227 184.202 10.656C184.575 10.3893 184.858 10.0427 185.05 9.616C185.242 9.18933 185.338 8.74133 185.338 8.272V8.256H183.306C182.516 8.256 181.956 8.39467 181.626 8.672C181.306 8.93867 181.146 9.27467 181.146 9.68C181.146 10.096 181.295 10.432 181.594 10.688C181.903 10.9333 182.335 11.056 182.89 11.056ZM189.514 2.304C189.247 2.304 189.023 2.21867 188.842 2.048C188.671 1.86667 188.586 1.64267 188.586 1.376C188.586 1.12 188.671 0.906666 188.842 0.735999C189.023 0.565333 189.247 0.48 189.514 0.48C189.77 0.48 189.988 0.565333 190.17 0.735999C190.351 0.906666 190.442 1.12 190.442 1.376C190.442 1.64267 190.351 1.86667 190.17 2.048C189.988 2.21867 189.77 2.304 189.514 2.304ZM188.842 12V4.064H190.186V12H188.842ZM192.526 12V4.064H193.742L193.822 5.488C194.078 4.98667 194.446 4.592 194.926 4.304C195.406 4.016 195.95 3.872 196.558 3.872C197.497 3.872 198.243 4.16 198.798 4.736C199.363 5.30133 199.646 6.176 199.646 7.36V12H198.302V7.504C198.302 5.85067 197.619 5.024 196.254 5.024C195.571 5.024 195.001 5.27467 194.542 5.776C194.094 6.26667 193.87 6.97067 193.87 7.888V12H192.526ZM204.722 12.192C203.773 12.192 202.983 11.952 202.354 11.472C201.725 10.992 201.357 10.3413 201.25 9.52H202.626C202.711 9.936 202.93 10.2987 203.282 10.608C203.645 10.9067 204.13 11.056 204.738 11.056C205.303 11.056 205.719 10.9387 205.986 10.704C206.253 10.4587 206.386 10.1707 206.386 9.84C206.386 9.36 206.21 9.04 205.858 8.88C205.517 8.72 205.031 8.576 204.402 8.448C203.975 8.36267 203.549 8.24 203.122 8.08C202.695 7.92 202.338 7.696 202.05 7.408C201.762 7.10933 201.618 6.72 201.618 6.24C201.618 5.54667 201.874 4.98133 202.386 4.544C202.909 4.096 203.613 3.872 204.498 3.872C205.341 3.872 206.029 4.08533 206.562 4.512C207.106 4.928 207.421 5.52533 207.506 6.304H206.178C206.125 5.89867 205.949 5.584 205.65 5.36C205.362 5.12533 204.973 5.008 204.482 5.008C204.002 5.008 203.629 5.10933 203.362 5.312C203.106 5.51467 202.978 5.78133 202.978 6.112C202.978 6.432 203.143 6.68267 203.474 6.864C203.815 7.04533 204.274 7.2 204.85 7.328C205.341 7.43467 205.805 7.568 206.242 7.728C206.69 7.87733 207.053 8.10667 207.33 8.416C207.618 8.71467 207.762 9.152 207.762 9.728C207.773 10.4427 207.501 11.0347 206.946 11.504C206.402 11.9627 205.661 12.192 204.722 12.192ZM217.565 12.192C216.807 12.192 216.125 12.0213 215.517 11.68C214.919 11.328 214.445 10.8427 214.093 10.224C213.751 9.59467 213.581 8.864 213.581 8.032C213.581 7.2 213.751 6.47467 214.093 5.856C214.445 5.22667 214.919 4.74133 215.517 4.4C216.125 4.048 216.807 3.872 217.565 3.872C218.503 3.872 219.293 4.11733 219.933 4.608C220.583 5.09867 220.994 5.75467 221.165 6.576H219.789C219.682 6.08533 219.421 5.70667 219.005 5.44C218.589 5.16267 218.103 5.024 217.549 5.024C217.101 5.024 216.679 5.136 216.285 5.36C215.89 5.584 215.57 5.92 215.325 6.368C215.079 6.816 214.957 7.37067 214.957 8.032C214.957 8.69333 215.079 9.248 215.325 9.696C215.57 10.144 215.89 10.4853 216.285 10.72C216.679 10.944 217.101 11.056 217.549 11.056C218.103 11.056 218.589 10.9227 219.005 10.656C219.421 10.3787 219.682 9.98933 219.789 9.488H221.165C221.005 10.288 220.599 10.9387 219.949 11.44C219.298 11.9413 218.503 12.192 217.565 12.192ZM226.658 12.192C225.911 12.192 225.239 12.0213 224.642 11.68C224.044 11.3387 223.57 10.8587 223.218 10.24C222.876 9.61067 222.706 8.87467 222.706 8.032C222.706 7.18933 222.882 6.45867 223.234 5.84C223.586 5.21067 224.06 4.72533 224.658 4.384C225.266 4.04267 225.943 3.872 226.69 3.872C227.436 3.872 228.108 4.04267 228.706 4.384C229.303 4.72533 229.772 5.21067 230.114 5.84C230.466 6.45867 230.642 7.18933 230.642 8.032C230.642 8.87467 230.466 9.61067 230.114 10.24C229.762 10.8587 229.282 11.3387 228.674 11.68C228.076 12.0213 227.404 12.192 226.658 12.192ZM226.658 11.04C227.116 11.04 227.543 10.928 227.938 10.704C228.332 10.48 228.652 10.144 228.898 9.696C229.143 9.248 229.266 8.69333 229.266 8.032C229.266 7.37067 229.143 6.816 228.898 6.368C228.663 5.92 228.348 5.584 227.954 5.36C227.559 5.136 227.138 5.024 226.69 5.024C226.231 5.024 225.804 5.136 225.41 5.36C225.015 5.584 224.695 5.92 224.45 6.368C224.204 6.816 224.082 7.37067 224.082 8.032C224.082 8.69333 224.204 9.248 224.45 9.696C224.695 10.144 225.01 10.48 225.394 10.704C225.788 10.928 226.21 11.04 226.658 11.04ZM232.51 12V4.064H233.726L233.822 5.216C234.078 4.78933 234.42 4.45867 234.846 4.224C235.273 3.98933 235.753 3.872 236.286 3.872C236.916 3.872 237.454 4 237.902 4.256C238.361 4.512 238.713 4.90133 238.958 5.424C239.236 4.944 239.614 4.56533 240.094 4.288C240.585 4.01067 241.113 3.872 241.678 3.872C242.628 3.872 243.385 4.16 243.95 4.736C244.516 5.30133 244.798 6.176 244.798 7.36V12H243.47V7.504C243.47 6.68267 243.305 6.064 242.974 5.648C242.644 5.232 242.169 5.024 241.55 5.024C240.91 5.024 240.377 5.27467 239.95 5.776C239.534 6.26667 239.326 6.97067 239.326 7.888V12H237.982V7.504C237.982 6.68267 237.817 6.064 237.486 5.648C237.156 5.232 236.681 5.024 236.062 5.024C235.433 5.024 234.905 5.27467 234.478 5.776C234.062 6.26667 233.854 6.97067 233.854 7.888V12H232.51ZM246.823 15.52V4.064H248.039L248.167 5.376C248.423 4.992 248.785 4.64533 249.255 4.336C249.735 4.02667 250.343 3.872 251.079 3.872C251.868 3.872 252.556 4.05333 253.143 4.416C253.729 4.77867 254.183 5.27467 254.503 5.904C254.833 6.53333 254.999 7.248 254.999 8.048C254.999 8.848 254.833 9.56267 254.503 10.192C254.183 10.8107 253.724 11.3013 253.127 11.664C252.54 12.016 251.852 12.192 251.063 12.192C250.412 12.192 249.831 12.0587 249.319 11.792C248.817 11.5253 248.433 11.152 248.167 10.672V15.52H246.823ZM250.919 11.024C251.452 11.024 251.921 10.9013 252.327 10.656C252.732 10.4 253.052 10.048 253.287 9.6C253.521 9.152 253.639 8.62933 253.639 8.032C253.639 7.43467 253.521 6.912 253.287 6.464C253.052 6.016 252.732 5.66933 252.327 5.424C251.921 5.168 251.452 5.04 250.919 5.04C250.385 5.04 249.916 5.168 249.511 5.424C249.105 5.66933 248.785 6.016 248.551 6.464C248.316 6.912 248.199 7.43467 248.199 8.032C248.199 8.62933 248.316 9.152 248.551 9.6C248.785 10.048 249.105 10.4 249.511 10.656C249.916 10.9013 250.385 11.024 250.919 11.024ZM260.486 12.192C259.739 12.192 259.067 12.0213 258.47 11.68C257.872 11.3387 257.398 10.8587 257.046 10.24C256.704 9.61067 256.534 8.87467 256.534 8.032C256.534 7.18933 256.71 6.45867 257.062 5.84C257.414 5.21067 257.888 4.72533 258.486 4.384C259.094 4.04267 259.771 3.872 260.518 3.872C261.264 3.872 261.936 4.04267 262.534 4.384C263.131 4.72533 263.6 5.21067 263.942 5.84C264.294 6.45867 264.47 7.18933 264.47 8.032C264.47 8.87467 264.294 9.61067 263.942 10.24C263.59 10.8587 263.11 11.3387 262.502 11.68C261.904 12.0213 261.232 12.192 260.486 12.192ZM260.486 11.04C260.944 11.04 261.371 10.928 261.766 10.704C262.16 10.48 262.48 10.144 262.726 9.696C262.971 9.248 263.094 8.69333 263.094 8.032C263.094 7.37067 262.971 6.816 262.726 6.368C262.491 5.92 262.176 5.584 261.782 5.36C261.387 5.136 260.966 5.024 260.518 5.024C260.059 5.024 259.632 5.136 259.238 5.36C258.843 5.584 258.523 5.92 258.278 6.368C258.032 6.816 257.91 7.37067 257.91 8.032C257.91 8.69333 258.032 9.248 258.278 9.696C258.523 10.144 258.838 10.48 259.222 10.704C259.616 10.928 260.038 11.04 260.486 11.04ZM266.338 12V4.064H267.554L267.634 5.488C267.89 4.98667 268.258 4.592 268.738 4.304C269.218 4.016 269.762 3.872 270.37 3.872C271.309 3.872 272.056 4.16 272.61 4.736C273.176 5.30133 273.458 6.176 273.458 7.36V12H272.114V7.504C272.114 5.85067 271.432 5.024 270.066 5.024C269.384 5.024 268.813 5.27467 268.354 5.776C267.906 6.26667 267.682 6.97067 267.682 7.888V12H266.338ZM279.063 12.192C278.305 12.192 277.633 12.0213 277.047 11.68C276.46 11.328 275.996 10.8427 275.655 10.224C275.324 9.60533 275.159 8.87467 275.159 8.032C275.159 7.2 275.324 6.47467 275.655 5.856C275.985 5.22667 276.444 4.74133 277.031 4.4C277.628 4.048 278.316 3.872 279.095 3.872C279.863 3.872 280.524 4.048 281.079 4.4C281.644 4.74133 282.076 5.19467 282.375 5.76C282.673 6.32533 282.823 6.93333 282.823 7.584C282.823 7.70133 282.817 7.81867 282.807 7.936C282.807 8.05333 282.807 8.18667 282.807 8.336H276.487C276.519 8.944 276.657 9.45067 276.903 9.856C277.159 10.2507 277.473 10.5493 277.847 10.752C278.231 10.9547 278.636 11.056 279.063 11.056C279.617 11.056 280.081 10.928 280.455 10.672C280.828 10.416 281.1 10.0693 281.271 9.632H282.599C282.385 10.368 281.975 10.9813 281.367 11.472C280.769 11.952 280.001 12.192 279.063 12.192ZM279.063 5.008C278.423 5.008 277.852 5.20533 277.351 5.6C276.86 5.984 276.577 6.54933 276.503 7.296H281.495C281.463 6.58133 281.217 6.02133 280.759 5.616C280.3 5.21067 279.735 5.008 279.063 5.008ZM284.604 12V4.064H285.82L285.9 5.488C286.156 4.98667 286.524 4.592 287.004 4.304C287.484 4.016 288.028 3.872 288.636 3.872C289.575 3.872 290.321 4.16 290.876 4.736C291.441 5.30133 291.724 6.176 291.724 7.36V12H290.38V7.504C290.38 5.85067 289.697 5.024 288.332 5.024C287.649 5.024 287.079 5.27467 286.62 5.776C286.172 6.26667 285.948 6.97067 285.948 7.888V12H284.604ZM296.896 12C296.171 12 295.6 11.824 295.184 11.472C294.768 11.12 294.56 10.4853 294.56 9.568V5.2H293.184V4.064H294.56L294.736 2.16H295.904V4.064H298.24V5.2H295.904V9.568C295.904 10.0693 296.006 10.4107 296.208 10.592C296.411 10.7627 296.768 10.848 297.28 10.848H298.112V12H296.896ZM302.988 12.192C302.038 12.192 301.249 11.952 300.62 11.472C299.99 10.992 299.622 10.3413 299.516 9.52H300.892C300.977 9.936 301.196 10.2987 301.548 10.608C301.91 10.9067 302.396 11.056 303.004 11.056C303.569 11.056 303.985 10.9387 304.252 10.704C304.518 10.4587 304.652 10.1707 304.652 9.84C304.652 9.36 304.476 9.04 304.124 8.88C303.782 8.72 303.297 8.576 302.668 8.448C302.241 8.36267 301.814 8.24 301.388 8.08C300.961 7.92 300.604 7.696 300.316 7.408C300.028 7.10933 299.884 6.72 299.884 6.24C299.884 5.54667 300.14 4.98133 300.652 4.544C301.174 4.096 301.878 3.872 302.764 3.872C303.606 3.872 304.294 4.08533 304.828 4.512C305.372 4.928 305.686 5.52533 305.772 6.304H304.444C304.39 5.89867 304.214 5.584 303.916 5.36C303.628 5.12533 303.238 5.008 302.748 5.008C302.268 5.008 301.894 5.10933 301.628 5.312C301.372 5.51467 301.244 5.78133 301.244 6.112C301.244 6.432 301.409 6.68267 301.74 6.864C302.081 7.04533 302.54 7.2 303.116 7.328C303.606 7.43467 304.07 7.568 304.508 7.728C304.956 7.87733 305.318 8.10667 305.596 8.416C305.884 8.71467 306.028 9.152 306.028 9.728C306.038 10.4427 305.766 11.0347 305.212 11.504C304.668 11.9627 303.926 12.192 302.988 12.192ZM314.822 12.192C314.161 12.192 313.611 12.08 313.174 11.856C312.737 11.632 312.411 11.3333 312.198 10.96C311.985 10.5867 311.878 10.1813 311.878 9.744C311.878 8.93333 312.187 8.30933 312.806 7.872C313.425 7.43467 314.267 7.216 315.334 7.216H317.478V7.12C317.478 6.42667 317.297 5.904 316.934 5.552C316.571 5.18933 316.086 5.008 315.478 5.008C314.955 5.008 314.502 5.14133 314.118 5.408C313.745 5.664 313.51 6.04267 313.414 6.544H312.038C312.091 5.968 312.283 5.48267 312.614 5.088C312.955 4.69333 313.377 4.39467 313.878 4.192C314.379 3.97867 314.913 3.872 315.478 3.872C316.587 3.872 317.419 4.17067 317.974 4.768C318.539 5.35467 318.822 6.13867 318.822 7.12V12H317.622L317.542 10.576C317.318 11.024 316.987 11.408 316.55 11.728C316.123 12.0373 315.547 12.192 314.822 12.192ZM315.03 11.056C315.542 11.056 315.979 10.9227 316.342 10.656C316.715 10.3893 316.998 10.0427 317.19 9.616C317.382 9.18933 317.478 8.74133 317.478 8.272V8.256H315.446C314.657 8.256 314.097 8.39467 313.766 8.672C313.446 8.93867 313.286 9.27467 313.286 9.68C313.286 10.096 313.435 10.432 313.734 10.688C314.043 10.9333 314.475 11.056 315.03 11.056ZM320.838 12V4.064H322.054L322.134 5.488C322.39 4.98667 322.758 4.592 323.238 4.304C323.718 4.016 324.262 3.872 324.87 3.872C325.809 3.872 326.556 4.16 327.11 4.736C327.676 5.30133 327.958 6.176 327.958 7.36V12H326.614V7.504C326.614 5.85067 325.932 5.024 324.566 5.024C323.884 5.024 323.313 5.27467 322.854 5.776C322.406 6.26667 322.182 6.97067 322.182 7.888V12H320.838ZM333.595 12.192C332.805 12.192 332.112 12.0107 331.515 11.648C330.928 11.2853 330.469 10.7893 330.139 10.16C329.819 9.53067 329.659 8.816 329.659 8.016C329.659 7.216 329.824 6.50667 330.155 5.888C330.485 5.25867 330.944 4.768 331.531 4.416C332.117 4.05333 332.811 3.872 333.611 3.872C334.261 3.872 334.837 4.00533 335.339 4.272C335.84 4.53867 336.229 4.912 336.507 5.392V0.48H337.851V12H336.635L336.507 10.688C336.251 11.072 335.883 11.4187 335.403 11.728C334.923 12.0373 334.32 12.192 333.595 12.192ZM333.739 11.024C334.272 11.024 334.741 10.9013 335.147 10.656C335.563 10.4 335.883 10.048 336.107 9.6C336.341 9.152 336.459 8.62933 336.459 8.032C336.459 7.43467 336.341 6.912 336.107 6.464C335.883 6.016 335.563 5.66933 335.147 5.424C334.741 5.168 334.272 5.04 333.739 5.04C333.216 5.04 332.747 5.168 332.331 5.424C331.925 5.66933 331.605 6.016 331.371 6.464C331.147 6.912 331.035 7.43467 331.035 8.032C331.035 8.62933 331.147 9.152 331.371 9.6C331.605 10.048 331.925 10.4 332.331 10.656C332.747 10.9013 333.216 11.024 333.739 11.024ZM347.924 12.192C347.167 12.192 346.484 12.0213 345.876 11.68C345.279 11.328 344.804 10.8427 344.452 10.224C344.111 9.59467 343.94 8.864 343.94 8.032C343.94 7.2 344.111 6.47467 344.452 5.856C344.804 5.22667 345.279 4.74133 345.876 4.4C346.484 4.048 347.167 3.872 347.924 3.872C348.863 3.872 349.652 4.11733 350.292 4.608C350.943 5.09867 351.353 5.75467 351.524 6.576H350.148C350.041 6.08533 349.78 5.70667 349.364 5.44C348.948 5.16267 348.463 5.024 347.908 5.024C347.46 5.024 347.039 5.136 346.644 5.36C346.249 5.584 345.929 5.92 345.684 6.368C345.439 6.816 345.316 7.37067 345.316 8.032C345.316 8.69333 345.439 9.248 345.684 9.696C345.929 10.144 346.249 10.4853 346.644 10.72C347.039 10.944 347.46 11.056 347.908 11.056C348.463 11.056 348.948 10.9227 349.364 10.656C349.78 10.3787 350.041 9.98933 350.148 9.488H351.524C351.364 10.288 350.959 10.9387 350.308 11.44C349.657 11.9413 348.863 12.192 347.924 12.192ZM357.017 12.192C356.27 12.192 355.598 12.0213 355.001 11.68C354.404 11.3387 353.929 10.8587 353.577 10.24C353.236 9.61067 353.065 8.87467 353.065 8.032C353.065 7.18933 353.241 6.45867 353.593 5.84C353.945 5.21067 354.42 4.72533 355.017 4.384C355.625 4.04267 356.302 3.872 357.049 3.872C357.796 3.872 358.468 4.04267 359.065 4.384C359.662 4.72533 360.132 5.21067 360.473 5.84C360.825 6.45867 361.001 7.18933 361.001 8.032C361.001 8.87467 360.825 9.61067 360.473 10.24C360.121 10.8587 359.641 11.3387 359.033 11.68C358.436 12.0213 357.764 12.192 357.017 12.192ZM357.017 11.04C357.476 11.04 357.902 10.928 358.297 10.704C358.692 10.48 359.012 10.144 359.257 9.696C359.502 9.248 359.625 8.69333 359.625 8.032C359.625 7.37067 359.502 6.816 359.257 6.368C359.022 5.92 358.708 5.584 358.313 5.36C357.918 5.136 357.497 5.024 357.049 5.024C356.59 5.024 356.164 5.136 355.769 5.36C355.374 5.584 355.054 5.92 354.809 6.368C354.564 6.816 354.441 7.37067 354.441 8.032C354.441 8.69333 354.564 9.248 354.809 9.696C355.054 10.144 355.369 10.48 355.753 10.704C356.148 10.928 356.569 11.04 357.017 11.04ZM362.87 12V4.064H364.086L364.182 5.216C364.438 4.78933 364.779 4.45867 365.206 4.224C365.632 3.98933 366.112 3.872 366.646 3.872C367.275 3.872 367.814 4 368.262 4.256C368.72 4.512 369.072 4.90133 369.318 5.424C369.595 4.944 369.974 4.56533 370.454 4.288C370.944 4.01067 371.472 3.872 372.038 3.872C372.987 3.872 373.744 4.16 374.31 4.736C374.875 5.30133 375.158 6.176 375.158 7.36V12H373.83V7.504C373.83 6.68267 373.664 6.064 373.334 5.648C373.003 5.232 372.528 5.024 371.91 5.024C371.27 5.024 370.736 5.27467 370.31 5.776C369.894 6.26667 369.686 6.97067 369.686 7.888V12H368.342V7.504C368.342 6.68267 368.176 6.064 367.846 5.648C367.515 5.232 367.04 5.024 366.422 5.024C365.792 5.024 365.264 5.27467 364.838 5.776C364.422 6.26667 364.214 6.97067 364.214 7.888V12H362.87ZM377.182 15.52V4.064H378.398L378.526 5.376C378.782 4.992 379.145 4.64533 379.614 4.336C380.094 4.02667 380.702 3.872 381.438 3.872C382.227 3.872 382.915 4.05333 383.502 4.416C384.089 4.77867 384.542 5.27467 384.862 5.904C385.193 6.53333 385.358 7.248 385.358 8.048C385.358 8.848 385.193 9.56267 384.862 10.192C384.542 10.8107 384.083 11.3013 383.486 11.664C382.899 12.016 382.211 12.192 381.422 12.192C380.771 12.192 380.19 12.0587 379.678 11.792C379.177 11.5253 378.793 11.152 378.526 10.672V15.52H377.182ZM381.278 11.024C381.811 11.024 382.281 10.9013 382.686 10.656C383.091 10.4 383.411 10.048 383.646 9.6C383.881 9.152 383.998 8.62933 383.998 8.032C383.998 7.43467 383.881 6.912 383.646 6.464C383.411 6.016 383.091 5.66933 382.686 5.424C382.281 5.168 381.811 5.04 381.278 5.04C380.745 5.04 380.275 5.168 379.87 5.424C379.465 5.66933 379.145 6.016 378.91 6.464C378.675 6.912 378.558 7.43467 378.558 8.032C378.558 8.62933 378.675 9.152 378.91 9.6C379.145 10.048 379.465 10.4 379.87 10.656C380.275 10.9013 380.745 11.024 381.278 11.024ZM387.229 12V0.48H388.573V12H387.229ZM394.344 12.192C393.587 12.192 392.915 12.0213 392.328 11.68C391.741 11.328 391.277 10.8427 390.936 10.224C390.605 9.60533 390.44 8.87467 390.44 8.032C390.44 7.2 390.605 6.47467 390.936 5.856C391.267 5.22667 391.725 4.74133 392.312 4.4C392.909 4.048 393.597 3.872 394.376 3.872C395.144 3.872 395.805 4.048 396.36 4.4C396.925 4.74133 397.357 5.19467 397.656 5.76C397.955 6.32533 398.104 6.93333 398.104 7.584C398.104 7.70133 398.099 7.81867 398.088 7.936C398.088 8.05333 398.088 8.18667 398.088 8.336H391.768C391.8 8.944 391.939 9.45067 392.184 9.856C392.44 10.2507 392.755 10.5493 393.128 10.752C393.512 10.9547 393.917 11.056 394.344 11.056C394.899 11.056 395.363 10.928 395.736 10.672C396.109 10.416 396.381 10.0693 396.552 9.632H397.88C397.667 10.368 397.256 10.9813 396.648 11.472C396.051 11.952 395.283 12.192 394.344 12.192ZM394.344 5.008C393.704 5.008 393.133 5.20533 392.632 5.6C392.141 5.984 391.859 6.54933 391.784 7.296H396.776C396.744 6.58133 396.499 6.02133 396.04 5.616C395.581 5.21067 395.016 5.008 394.344 5.008ZM398.71 12L401.462 8.032L398.71 4.064H400.166L402.39 7.344L404.63 4.064H406.07L403.318 8.032L406.07 12H404.63L402.39 8.72L400.166 12H398.71ZM415.953 12.192C415.303 12.192 414.721 12.0587 414.209 11.792C413.708 11.5253 413.324 11.152 413.057 10.672L412.929 12H411.713V0.48H413.057V5.376C413.313 4.992 413.676 4.64533 414.145 4.336C414.625 4.02667 415.233 3.872 415.969 3.872C416.759 3.872 417.447 4.05333 418.033 4.416C418.62 4.77867 419.073 5.27467 419.393 5.904C419.724 6.53333 419.889 7.248 419.889 8.048C419.889 8.848 419.724 9.56267 419.393 10.192C419.073 10.8107 418.615 11.3013 418.017 11.664C417.431 12.016 416.743 12.192 415.953 12.192ZM415.809 11.024C416.343 11.024 416.812 10.9013 417.217 10.656C417.623 10.4 417.943 10.048 418.177 9.6C418.412 9.152 418.529 8.62933 418.529 8.032C418.529 7.43467 418.412 6.912 418.177 6.464C417.943 6.016 417.623 5.66933 417.217 5.424C416.812 5.168 416.343 5.04 415.809 5.04C415.276 5.04 414.807 5.168 414.401 5.424C413.996 5.66933 413.676 6.016 413.441 6.464C413.207 6.912 413.089 7.43467 413.089 8.032C413.089 8.62933 413.207 9.152 413.441 9.6C413.676 10.048 413.996 10.4 414.401 10.656C414.807 10.9013 415.276 11.024 415.809 11.024ZM421.76 12V0.48H423.104V12H421.76ZM428.923 12.192C428.176 12.192 427.504 12.0213 426.907 11.68C426.31 11.3387 425.835 10.8587 425.483 10.24C425.142 9.61067 424.971 8.87467 424.971 8.032C424.971 7.18933 425.147 6.45867 425.499 5.84C425.851 5.21067 426.326 4.72533 426.923 4.384C427.531 4.04267 428.208 3.872 428.955 3.872C429.702 3.872 430.374 4.04267 430.971 4.384C431.568 4.72533 432.038 5.21067 432.379 5.84C432.731 6.45867 432.907 7.18933 432.907 8.032C432.907 8.87467 432.731 9.61067 432.379 10.24C432.027 10.8587 431.547 11.3387 430.939 11.68C430.342 12.0213 429.67 12.192 428.923 12.192ZM428.923 11.04C429.382 11.04 429.808 10.928 430.203 10.704C430.598 10.48 430.918 10.144 431.163 9.696C431.408 9.248 431.531 8.69333 431.531 8.032C431.531 7.37067 431.408 6.816 431.163 6.368C430.928 5.92 430.614 5.584 430.219 5.36C429.824 5.136 429.403 5.024 428.955 5.024C428.496 5.024 428.07 5.136 427.675 5.36C427.28 5.584 426.96 5.92 426.715 6.368C426.47 6.816 426.347 7.37067 426.347 8.032C426.347 8.69333 426.47 9.248 426.715 9.696C426.96 10.144 427.275 10.48 427.659 10.704C428.054 10.928 428.475 11.04 428.923 11.04ZM438.424 12.192C437.667 12.192 436.984 12.0213 436.376 11.68C435.779 11.328 435.304 10.8427 434.952 10.224C434.611 9.59467 434.44 8.864 434.44 8.032C434.44 7.2 434.611 6.47467 434.952 5.856C435.304 5.22667 435.779 4.74133 436.376 4.4C436.984 4.048 437.667 3.872 438.424 3.872C439.363 3.872 440.152 4.11733 440.792 4.608C441.443 5.09867 441.853 5.75467 442.024 6.576H440.648C440.541 6.08533 440.28 5.70667 439.864 5.44C439.448 5.16267 438.963 5.024 438.408 5.024C437.96 5.024 437.539 5.136 437.144 5.36C436.749 5.584 436.429 5.92 436.184 6.368C435.939 6.816 435.816 7.37067 435.816 8.032C435.816 8.69333 435.939 9.248 436.184 9.696C436.429 10.144 436.749 10.4853 437.144 10.72C437.539 10.944 437.96 11.056 438.408 11.056C438.963 11.056 439.448 10.9227 439.864 10.656C440.28 10.3787 440.541 9.98933 440.648 9.488H442.024C441.864 10.288 441.459 10.9387 440.808 11.44C440.157 11.9413 439.363 12.192 438.424 12.192ZM443.901 12V0.48H445.245V7.408L448.493 4.064H450.141L446.621 7.648L450.589 12H448.877L445.245 7.888V12H443.901ZM454.535 12.192C453.585 12.192 452.796 11.952 452.167 11.472C451.537 10.992 451.169 10.3413 451.063 9.52H452.439C452.524 9.936 452.743 10.2987 453.095 10.608C453.457 10.9067 453.943 11.056 454.551 11.056C455.116 11.056 455.532 10.9387 455.799 10.704C456.065 10.4587 456.199 10.1707 456.199 9.84C456.199 9.36 456.023 9.04 455.671 8.88C455.329 8.72 454.844 8.576 454.215 8.448C453.788 8.36267 453.361 8.24 452.935 8.08C452.508 7.92 452.151 7.696 451.863 7.408C451.575 7.10933 451.431 6.72 451.431 6.24C451.431 5.54667 451.687 4.98133 452.199 4.544C452.721 4.096 453.425 3.872 454.311 3.872C455.153 3.872 455.841 4.08533 456.375 4.512C456.919 4.928 457.233 5.52533 457.319 6.304H455.991C455.937 5.89867 455.761 5.584 455.463 5.36C455.175 5.12533 454.785 5.008 454.295 5.008C453.815 5.008 453.441 5.10933 453.175 5.312C452.919 5.51467 452.791 5.78133 452.791 6.112C452.791 6.432 452.956 6.68267 453.287 6.864C453.628 7.04533 454.087 7.2 454.663 7.328C455.153 7.43467 455.617 7.568 456.055 7.728C456.503 7.87733 456.865 8.10667 457.143 8.416C457.431 8.71467 457.575 9.152 457.575 9.728C457.585 10.4427 457.313 11.0347 456.759 11.504C456.215 11.9627 455.473 12.192 454.535 12.192ZM465.329 12L463.009 4.064H464.353L466.033 10.288L467.889 4.064H469.409L471.281 10.288L472.945 4.064H474.305L471.985 12H470.609L468.657 5.456L466.705 12H465.329ZM475.792 12V0.48H477.136V5.424C477.402 4.93333 477.781 4.55467 478.272 4.288C478.762 4.01067 479.296 3.872 479.872 3.872C480.789 3.872 481.525 4.16 482.08 4.736C482.634 5.30133 482.911 6.176 482.911 7.36V12H481.584V7.504C481.584 5.85067 480.917 5.024 479.584 5.024C478.89 5.024 478.309 5.27467 477.84 5.776C477.37 6.26667 477.136 6.97067 477.136 7.888V12H475.792ZM485.764 2.304C485.497 2.304 485.273 2.21867 485.092 2.048C484.921 1.86667 484.836 1.64267 484.836 1.376C484.836 1.12 484.921 0.906666 485.092 0.735999C485.273 0.565333 485.497 0.48 485.764 0.48C486.02 0.48 486.238 0.565333 486.42 0.735999C486.601 0.906666 486.692 1.12 486.692 1.376C486.692 1.64267 486.601 1.86667 486.42 2.048C486.238 2.21867 486.02 2.304 485.764 2.304ZM485.092 12V4.064H486.436V12H485.092ZM492.424 12.192C491.667 12.192 490.984 12.0213 490.376 11.68C489.779 11.328 489.304 10.8427 488.952 10.224C488.611 9.59467 488.44 8.864 488.44 8.032C488.44 7.2 488.611 6.47467 488.952 5.856C489.304 5.22667 489.779 4.74133 490.376 4.4C490.984 4.048 491.667 3.872 492.424 3.872C493.363 3.872 494.152 4.11733 494.792 4.608C495.443 5.09867 495.853 5.75467 496.024 6.576H494.648C494.541 6.08533 494.28 5.70667 493.864 5.44C493.448 5.16267 492.963 5.024 492.408 5.024C491.96 5.024 491.539 5.136 491.144 5.36C490.749 5.584 490.429 5.92 490.184 6.368C489.939 6.816 489.816 7.37067 489.816 8.032C489.816 8.69333 489.939 9.248 490.184 9.696C490.429 10.144 490.749 10.4853 491.144 10.72C491.539 10.944 491.96 11.056 492.408 11.056C492.963 11.056 493.448 10.9227 493.864 10.656C494.28 10.3787 494.541 9.98933 494.648 9.488H496.024C495.864 10.288 495.459 10.9387 494.808 11.44C494.157 11.9413 493.363 12.192 492.424 12.192ZM497.901 12V0.48H499.245V5.424C499.512 4.93333 499.89 4.55467 500.381 4.288C500.872 4.01067 501.405 3.872 501.981 3.872C502.898 3.872 503.634 4.16 504.189 4.736C504.744 5.30133 505.021 6.176 505.021 7.36V12H503.693V7.504C503.693 5.85067 503.026 5.024 501.693 5.024C501 5.024 500.418 5.27467 499.949 5.776C499.48 6.26667 499.245 6.97067 499.245 7.888V12H497.901ZM514.94 12.192C514.182 12.192 513.5 12.0213 512.892 11.68C512.294 11.328 511.82 10.8427 511.468 10.224C511.126 9.59467 510.956 8.864 510.956 8.032C510.956 7.2 511.126 6.47467 511.468 5.856C511.82 5.22667 512.294 4.74133 512.892 4.4C513.5 4.048 514.182 3.872 514.94 3.872C515.878 3.872 516.668 4.11733 517.308 4.608C517.958 5.09867 518.369 5.75467 518.54 6.576H517.164C517.057 6.08533 516.796 5.70667 516.38 5.44C515.964 5.16267 515.478 5.024 514.924 5.024C514.476 5.024 514.054 5.136 513.66 5.36C513.265 5.584 512.945 5.92 512.7 6.368C512.454 6.816 512.332 7.37067 512.332 8.032C512.332 8.69333 512.454 9.248 512.7 9.696C512.945 10.144 513.265 10.4853 513.66 10.72C514.054 10.944 514.476 11.056 514.924 11.056C515.478 11.056 515.964 10.9227 516.38 10.656C516.796 10.3787 517.057 9.98933 517.164 9.488H518.54C518.38 10.288 517.974 10.9387 517.324 11.44C516.673 11.9413 515.878 12.192 514.94 12.192ZM523.057 12.192C522.395 12.192 521.846 12.08 521.409 11.856C520.971 11.632 520.646 11.3333 520.433 10.96C520.219 10.5867 520.113 10.1813 520.113 9.744C520.113 8.93333 520.422 8.30933 521.041 7.872C521.659 7.43467 522.502 7.216 523.569 7.216H525.713V7.12C525.713 6.42667 525.531 5.904 525.169 5.552C524.806 5.18933 524.321 5.008 523.713 5.008C523.19 5.008 522.737 5.14133 522.353 5.408C521.979 5.664 521.745 6.04267 521.649 6.544H520.273C520.326 5.968 520.518 5.48267 520.849 5.088C521.19 4.69333 521.611 4.39467 522.113 4.192C522.614 3.97867 523.147 3.872 523.713 3.872C524.822 3.872 525.654 4.17067 526.209 4.768C526.774 5.35467 527.057 6.13867 527.057 7.12V12H525.857L525.777 10.576C525.553 11.024 525.222 11.408 524.785 11.728C524.358 12.0373 523.782 12.192 523.057 12.192ZM523.265 11.056C523.777 11.056 524.214 10.9227 524.577 10.656C524.95 10.3893 525.233 10.0427 525.425 9.616C525.617 9.18933 525.713 8.74133 525.713 8.272V8.256H523.681C522.891 8.256 522.331 8.39467 522.001 8.672C521.681 8.93867 521.521 9.27467 521.521 9.68C521.521 10.096 521.67 10.432 521.969 10.688C522.278 10.9333 522.71 11.056 523.265 11.056ZM529.073 12V4.064H530.289L530.369 5.488C530.625 4.98667 530.993 4.592 531.473 4.304C531.953 4.016 532.497 3.872 533.105 3.872C534.043 3.872 534.79 4.16 535.345 4.736C535.91 5.30133 536.193 6.176 536.193 7.36V12H534.849V7.504C534.849 5.85067 534.166 5.024 532.801 5.024C532.118 5.024 531.547 5.27467 531.089 5.776C530.641 6.26667 530.417 6.97067 530.417 7.888V12H529.073ZM546.031 12.192C545.274 12.192 544.602 12.0213 544.015 11.68C543.429 11.328 542.965 10.8427 542.623 10.224C542.293 9.60533 542.127 8.87467 542.127 8.032C542.127 7.2 542.293 6.47467 542.623 5.856C542.954 5.22667 543.413 4.74133 543.999 4.4C544.597 4.048 545.285 3.872 546.063 3.872C546.831 3.872 547.493 4.048 548.047 4.4C548.613 4.74133 549.045 5.19467 549.343 5.76C549.642 6.32533 549.791 6.93333 549.791 7.584C549.791 7.70133 549.786 7.81867 549.775 7.936C549.775 8.05333 549.775 8.18667 549.775 8.336H543.455C543.487 8.944 543.626 9.45067 543.871 9.856C544.127 10.2507 544.442 10.5493 544.815 10.752C545.199 10.9547 545.605 11.056 546.031 11.056C546.586 11.056 547.05 10.928 547.423 10.672C547.797 10.416 548.069 10.0693 548.239 9.632H549.567C549.354 10.368 548.943 10.9813 548.335 11.472C547.738 11.952 546.97 12.192 546.031 12.192ZM546.031 5.008C545.391 5.008 544.821 5.20533 544.319 5.6C543.829 5.984 543.546 6.54933 543.471 7.296H548.463C548.431 6.58133 548.186 6.02133 547.727 5.616C547.269 5.21067 546.703 5.008 546.031 5.008ZM554.213 12.192C553.551 12.192 553.002 12.08 552.565 11.856C552.127 11.632 551.802 11.3333 551.589 10.96C551.375 10.5867 551.269 10.1813 551.269 9.744C551.269 8.93333 551.578 8.30933 552.197 7.872C552.815 7.43467 553.658 7.216 554.725 7.216H556.869V7.12C556.869 6.42667 556.687 5.904 556.325 5.552C555.962 5.18933 555.477 5.008 554.869 5.008C554.346 5.008 553.893 5.14133 553.509 5.408C553.135 5.664 552.901 6.04267 552.805 6.544H551.429C551.482 5.968 551.674 5.48267 552.005 5.088C552.346 4.69333 552.767 4.39467 553.269 4.192C553.77 3.97867 554.303 3.872 554.869 3.872C555.978 3.872 556.81 4.17067 557.365 4.768C557.93 5.35467 558.213 6.13867 558.213 7.12V12H557.013L556.933 10.576C556.709 11.024 556.378 11.408 555.941 11.728C555.514 12.0373 554.938 12.192 554.213 12.192ZM554.421 11.056C554.933 11.056 555.37 10.9227 555.733 10.656C556.106 10.3893 556.389 10.0427 556.581 9.616C556.773 9.18933 556.869 8.74133 556.869 8.272V8.256H554.837C554.047 8.256 553.487 8.39467 553.157 8.672C552.837 8.93867 552.677 9.27467 552.677 9.68C552.677 10.096 552.826 10.432 553.125 10.688C553.434 10.9333 553.866 11.056 554.421 11.056ZM563.269 12.192C562.32 12.192 561.53 11.952 560.901 11.472C560.272 10.992 559.904 10.3413 559.797 9.52H561.173C561.258 9.936 561.477 10.2987 561.829 10.608C562.192 10.9067 562.677 11.056 563.285 11.056C563.85 11.056 564.266 10.9387 564.533 10.704C564.8 10.4587 564.933 10.1707 564.933 9.84C564.933 9.36 564.757 9.04 564.405 8.88C564.064 8.72 563.578 8.576 562.949 8.448C562.522 8.36267 562.096 8.24 561.669 8.08C561.242 7.92 560.885 7.696 560.597 7.408C560.309 7.10933 560.165 6.72 560.165 6.24C560.165 5.54667 560.421 4.98133 560.933 4.544C561.456 4.096 562.16 3.872 563.045 3.872C563.888 3.872 564.576 4.08533 565.109 4.512C565.653 4.928 565.968 5.52533 566.053 6.304H564.725C564.672 5.89867 564.496 5.584 564.197 5.36C563.909 5.12533 563.52 5.008 563.029 5.008C562.549 5.008 562.176 5.10933 561.909 5.312C561.653 5.51467 561.525 5.78133 561.525 6.112C561.525 6.432 561.69 6.68267 562.021 6.864C562.362 7.04533 562.821 7.2 563.397 7.328C563.888 7.43467 564.352 7.568 564.789 7.728C565.237 7.87733 565.6 8.10667 565.877 8.416C566.165 8.71467 566.309 9.152 566.309 9.728C566.32 10.4427 566.048 11.0347 565.493 11.504C564.949 11.9627 564.208 12.192 563.269 12.192ZM569.045 2.304C568.778 2.304 568.554 2.21867 568.373 2.048C568.202 1.86667 568.117 1.64267 568.117 1.376C568.117 1.12 568.202 0.906666 568.373 0.735999C568.554 0.565333 568.778 0.48 569.045 0.48C569.301 0.48 569.52 0.565333 569.701 0.735999C569.882 0.906666 569.973 1.12 569.973 1.376C569.973 1.64267 569.882 1.86667 569.701 2.048C569.52 2.21867 569.301 2.304 569.045 2.304ZM568.373 12V4.064H569.717V12H568.373ZM572.057 12V0.48H573.401V12H572.057ZM576.468 15.52L578.436 11.232H577.972L574.82 4.064H576.276L578.9 10.24L581.684 4.064H583.076L577.876 15.52H576.468ZM592.969 12.192C592.318 12.192 591.737 12.0587 591.225 11.792C590.724 11.5253 590.34 11.152 590.073 10.672L589.945 12H588.729V0.48H590.073V5.376C590.329 4.992 590.692 4.64533 591.161 4.336C591.641 4.02667 592.249 3.872 592.985 3.872C593.774 3.872 594.462 4.05333 595.049 4.416C595.636 4.77867 596.089 5.27467 596.409 5.904C596.74 6.53333 596.905 7.248 596.905 8.048C596.905 8.848 596.74 9.56267 596.409 10.192C596.089 10.8107 595.63 11.3013 595.033 11.664C594.446 12.016 593.758 12.192 592.969 12.192ZM592.825 11.024C593.358 11.024 593.828 10.9013 594.233 10.656C594.638 10.4 594.958 10.048 595.193 9.6C595.428 9.152 595.545 8.62933 595.545 8.032C595.545 7.43467 595.428 6.912 595.193 6.464C594.958 6.016 594.638 5.66933 594.233 5.424C593.828 5.168 593.358 5.04 592.825 5.04C592.292 5.04 591.822 5.168 591.417 5.424C591.012 5.66933 590.692 6.016 590.457 6.464C590.222 6.912 590.105 7.43467 590.105 8.032C590.105 8.62933 590.222 9.152 590.457 9.6C590.692 10.048 591.012 10.4 591.417 10.656C591.822 10.9013 592.292 11.024 592.825 11.024ZM602.344 12.192C601.587 12.192 600.915 12.0213 600.328 11.68C599.741 11.328 599.277 10.8427 598.936 10.224C598.605 9.60533 598.44 8.87467 598.44 8.032C598.44 7.2 598.605 6.47467 598.936 5.856C599.267 5.22667 599.725 4.74133 600.312 4.4C600.909 4.048 601.597 3.872 602.376 3.872C603.144 3.872 603.805 4.048 604.36 4.4C604.925 4.74133 605.357 5.19467 605.656 5.76C605.955 6.32533 606.104 6.93333 606.104 7.584C606.104 7.70133 606.099 7.81867 606.088 7.936C606.088 8.05333 606.088 8.18667 606.088 8.336H599.768C599.8 8.944 599.939 9.45067 600.184 9.856C600.44 10.2507 600.755 10.5493 601.128 10.752C601.512 10.9547 601.917 11.056 602.344 11.056C602.899 11.056 603.363 10.928 603.736 10.672C604.109 10.416 604.381 10.0693 604.552 9.632H605.88C605.667 10.368 605.256 10.9813 604.648 11.472C604.051 11.952 603.283 12.192 602.344 12.192ZM602.344 5.008C601.704 5.008 601.133 5.20533 600.632 5.6C600.141 5.984 599.859 6.54933 599.784 7.296H604.776C604.744 6.58133 604.499 6.02133 604.04 5.616C603.581 5.21067 603.016 5.008 602.344 5.008ZM612.936 2.304C612.669 2.304 612.445 2.21867 612.264 2.048C612.093 1.86667 612.008 1.64267 612.008 1.376C612.008 1.12 612.093 0.906666 612.264 0.735999C612.445 0.565333 612.669 0.48 612.936 0.48C613.192 0.48 613.41 0.565333 613.592 0.735999C613.773 0.906666 613.864 1.12 613.864 1.376C613.864 1.64267 613.773 1.86667 613.592 2.048C613.41 2.21867 613.192 2.304 612.936 2.304ZM612.264 12V4.064H613.608V12H612.264ZM615.948 12V4.064H617.164L617.244 5.488C617.5 4.98667 617.868 4.592 618.348 4.304C618.828 4.016 619.372 3.872 619.98 3.872C620.918 3.872 621.665 4.16 622.22 4.736C622.785 5.30133 623.068 6.176 623.068 7.36V12H621.724V7.504C621.724 5.85067 621.041 5.024 619.676 5.024C618.993 5.024 618.422 5.27467 617.964 5.776C617.516 6.26667 617.292 6.97067 617.292 7.888V12H615.948ZM628.24 12C627.515 12 626.944 11.824 626.528 11.472C626.112 11.12 625.904 10.4853 625.904 9.568V5.2H624.528V4.064H625.904L626.08 2.16H627.248V4.064H629.584V5.2H627.248V9.568C627.248 10.0693 627.349 10.4107 627.552 10.592C627.755 10.7627 628.112 10.848 628.624 10.848H629.456V12H628.24ZM634.641 12.192C633.883 12.192 633.211 12.0213 632.625 11.68C632.038 11.328 631.574 10.8427 631.233 10.224C630.902 9.60533 630.737 8.87467 630.737 8.032C630.737 7.2 630.902 6.47467 631.233 5.856C631.563 5.22667 632.022 4.74133 632.609 4.4C633.206 4.048 633.894 3.872 634.673 3.872C635.441 3.872 636.102 4.048 636.657 4.4C637.222 4.74133 637.654 5.19467 637.953 5.76C638.251 6.32533 638.401 6.93333 638.401 7.584C638.401 7.70133 638.395 7.81867 638.385 7.936C638.385 8.05333 638.385 8.18667 638.385 8.336H632.065C632.097 8.944 632.235 9.45067 632.481 9.856C632.737 10.2507 633.051 10.5493 633.425 10.752C633.809 10.9547 634.214 11.056 634.641 11.056C635.195 11.056 635.659 10.928 636.033 10.672C636.406 10.416 636.678 10.0693 636.849 9.632H638.177C637.963 10.368 637.553 10.9813 636.945 11.472C636.347 11.952 635.579 12.192 634.641 12.192ZM634.641 5.008C634.001 5.008 633.43 5.20533 632.929 5.6C632.438 5.984 632.155 6.54933 632.081 7.296H637.073C637.041 6.58133 636.795 6.02133 636.337 5.616C635.878 5.21067 635.313 5.008 634.641 5.008ZM643.271 9.504C642.823 9.504 642.413 9.44533 642.039 9.328L641.239 10.08C641.357 10.1653 641.501 10.24 641.671 10.304C641.853 10.3573 642.109 10.4107 642.439 10.464C642.77 10.5067 643.234 10.5547 643.831 10.608C644.898 10.6827 645.661 10.928 646.119 11.344C646.578 11.76 646.807 12.304 646.807 12.976C646.807 13.4347 646.679 13.872 646.423 14.288C646.178 14.704 645.794 15.0453 645.271 15.312C644.759 15.5787 644.098 15.712 643.287 15.712C642.573 15.712 641.938 15.616 641.383 15.424C640.829 15.2427 640.397 14.96 640.087 14.576C639.778 14.2027 639.623 13.728 639.623 13.152C639.623 12.8533 639.703 12.528 639.863 12.176C640.023 11.8347 640.322 11.5093 640.759 11.2C640.525 11.104 640.322 11.0027 640.151 10.896C639.991 10.7787 639.842 10.6507 639.703 10.512V10.144L641.063 8.8C640.434 8.26667 640.119 7.56267 640.119 6.688C640.119 6.16533 640.242 5.69067 640.487 5.264C640.733 4.83733 641.09 4.50133 641.559 4.256C642.029 4 642.599 3.872 643.271 3.872C643.73 3.872 644.146 3.936 644.519 4.064H647.447V5.072L645.959 5.136C646.269 5.584 646.423 6.10133 646.423 6.688C646.423 7.21067 646.295 7.68533 646.039 8.112C645.794 8.53867 645.437 8.88 644.967 9.136C644.509 9.38133 643.943 9.504 643.271 9.504ZM643.271 8.4C643.837 8.4 644.285 8.256 644.615 7.968C644.957 7.66933 645.127 7.24267 645.127 6.688C645.127 6.144 644.957 5.728 644.615 5.44C644.285 5.14133 643.837 4.992 643.271 4.992C642.695 4.992 642.237 5.14133 641.895 5.44C641.565 5.728 641.399 6.144 641.399 6.688C641.399 7.24267 641.565 7.66933 641.895 7.968C642.237 8.256 642.695 8.4 643.271 8.4ZM640.935 13.024C640.935 13.5573 641.159 13.952 641.607 14.208C642.055 14.4747 642.615 14.608 643.287 14.608C643.949 14.608 644.477 14.464 644.871 14.176C645.277 13.888 645.479 13.504 645.479 13.024C645.479 12.6827 645.341 12.384 645.063 12.128C644.786 11.8827 644.274 11.7387 643.527 11.696C642.941 11.6533 642.434 11.6 642.007 11.536C641.57 11.7707 641.282 12.0213 641.143 12.288C641.005 12.5653 640.935 12.8107 640.935 13.024ZM648.963 12V4.064H650.179L650.291 5.584C650.537 5.06133 650.91 4.64533 651.411 4.336C651.913 4.02667 652.531 3.872 653.267 3.872V5.28H652.899C652.43 5.28 651.998 5.36533 651.603 5.536C651.209 5.696 650.894 5.97333 650.659 6.368C650.425 6.76267 650.307 7.30667 650.307 8V12H648.963ZM657.416 12.192C656.755 12.192 656.205 12.08 655.768 11.856C655.331 11.632 655.005 11.3333 654.792 10.96C654.579 10.5867 654.472 10.1813 654.472 9.744C654.472 8.93333 654.781 8.30933 655.4 7.872C656.019 7.43467 656.861 7.216 657.928 7.216H660.072V7.12C660.072 6.42667 659.891 5.904 659.528 5.552C659.165 5.18933 658.68 5.008 658.072 5.008C657.549 5.008 657.096 5.14133 656.712 5.408C656.339 5.664 656.104 6.04267 656.008 6.544H654.632C654.685 5.968 654.877 5.48267 655.208 5.088C655.549 4.69333 655.971 4.39467 656.472 4.192C656.973 3.97867 657.507 3.872 658.072 3.872C659.181 3.872 660.013 4.17067 660.568 4.768C661.133 5.35467 661.416 6.13867 661.416 7.12V12H660.216L660.136 10.576C659.912 11.024 659.581 11.408 659.144 11.728C658.717 12.0373 658.141 12.192 657.416 12.192ZM657.624 11.056C658.136 11.056 658.573 10.9227 658.936 10.656C659.309 10.3893 659.592 10.0427 659.784 9.616C659.976 9.18933 660.072 8.74133 660.072 8.272V8.256H658.04C657.251 8.256 656.691 8.39467 656.36 8.672C656.04 8.93867 655.88 9.27467 655.88 9.68C655.88 10.096 656.029 10.432 656.328 10.688C656.637 10.9333 657.069 11.056 657.624 11.056ZM666.349 12C665.624 12 665.053 11.824 664.637 11.472C664.221 11.12 664.013 10.4853 664.013 9.568V5.2H662.637V4.064H664.013L664.189 2.16H665.357V4.064H667.693V5.2H665.357V9.568C665.357 10.0693 665.459 10.4107 665.661 10.592C665.864 10.7627 666.221 10.848 666.733 10.848H667.565V12H666.349ZM672.75 12.192C671.993 12.192 671.321 12.0213 670.734 11.68C670.147 11.328 669.683 10.8427 669.342 10.224C669.011 9.60533 668.846 8.87467 668.846 8.032C668.846 7.2 669.011 6.47467 669.342 5.856C669.673 5.22667 670.131 4.74133 670.718 4.4C671.315 4.048 672.003 3.872 672.782 3.872C673.55 3.872 674.211 4.048 674.766 4.4C675.331 4.74133 675.763 5.19467 676.062 5.76C676.361 6.32533 676.51 6.93333 676.51 7.584C676.51 7.70133 676.505 7.81867 676.494 7.936C676.494 8.05333 676.494 8.18667 676.494 8.336H670.174C670.206 8.944 670.345 9.45067 670.59 9.856C670.846 10.2507 671.161 10.5493 671.534 10.752C671.918 10.9547 672.323 11.056 672.75 11.056C673.305 11.056 673.769 10.928 674.142 10.672C674.515 10.416 674.787 10.0693 674.958 9.632H676.286C676.073 10.368 675.662 10.9813 675.054 11.472C674.457 11.952 673.689 12.192 672.75 12.192ZM672.75 5.008C672.11 5.008 671.539 5.20533 671.038 5.6C670.547 5.984 670.265 6.54933 670.19 7.296H675.182C675.15 6.58133 674.905 6.02133 674.446 5.616C673.987 5.21067 673.422 5.008 672.75 5.008ZM681.891 12.192C681.102 12.192 680.409 12.0107 679.812 11.648C679.225 11.2853 678.766 10.7893 678.436 10.16C678.116 9.53067 677.956 8.816 677.956 8.016C677.956 7.216 678.121 6.50667 678.452 5.888C678.782 5.25867 679.241 4.768 679.828 4.416C680.414 4.05333 681.108 3.872 681.908 3.872C682.558 3.872 683.134 4.00533 683.636 4.272C684.137 4.53867 684.526 4.912 684.804 5.392V0.48H686.148V12H684.932L684.804 10.688C684.548 11.072 684.18 11.4187 683.7 11.728C683.22 12.0373 682.617 12.192 681.891 12.192ZM682.036 11.024C682.569 11.024 683.038 10.9013 683.444 10.656C683.86 10.4 684.18 10.048 684.404 9.6C684.638 9.152 684.756 8.62933 684.756 8.032C684.756 7.43467 684.638 6.912 684.404 6.464C684.18 6.016 683.86 5.66933 683.444 5.424C683.038 5.168 682.569 5.04 682.036 5.04C681.513 5.04 681.044 5.168 680.628 5.424C680.222 5.66933 679.902 6.016 679.668 6.464C679.444 6.912 679.332 7.43467 679.332 8.032C679.332 8.62933 679.444 9.152 679.668 9.6C679.902 10.048 680.222 10.4 680.628 10.656C681.044 10.9013 681.513 11.024 682.036 11.024ZM693.389 2.304C693.122 2.304 692.898 2.21867 692.717 2.048C692.546 1.86667 692.461 1.64267 692.461 1.376C692.461 1.12 692.546 0.906666 692.717 0.735999C692.898 0.565333 693.122 0.48 693.389 0.48C693.645 0.48 693.863 0.565333 694.045 0.735999C694.226 0.906666 694.317 1.12 694.317 1.376C694.317 1.64267 694.226 1.86667 694.045 2.048C693.863 2.21867 693.645 2.304 693.389 2.304ZM692.717 12V4.064H694.061V12H692.717ZM696.401 12V4.064H697.617L697.697 5.488C697.953 4.98667 698.321 4.592 698.801 4.304C699.281 4.016 699.825 3.872 700.433 3.872C701.372 3.872 702.118 4.16 702.673 4.736C703.238 5.30133 703.521 6.176 703.521 7.36V12H702.177V7.504C702.177 5.85067 701.494 5.024 700.129 5.024C699.446 5.024 698.876 5.27467 698.417 5.776C697.969 6.26667 697.745 6.97067 697.745 7.888V12H696.401ZM708.693 12C707.968 12 707.397 11.824 706.981 11.472C706.565 11.12 706.357 10.4853 706.357 9.568V5.2H704.981V4.064H706.357L706.533 2.16H707.701V4.064H710.037V5.2H707.701V9.568C707.701 10.0693 707.802 10.4107 708.005 10.592C708.208 10.7627 708.565 10.848 709.077 10.848H709.909V12H708.693ZM715.142 12.192C714.395 12.192 713.723 12.0213 713.126 11.68C712.529 11.3387 712.054 10.8587 711.702 10.24C711.361 9.61067 711.19 8.87467 711.19 8.032C711.19 7.18933 711.366 6.45867 711.718 5.84C712.07 5.21067 712.545 4.72533 713.142 4.384C713.75 4.04267 714.427 3.872 715.174 3.872C715.921 3.872 716.593 4.04267 717.19 4.384C717.787 4.72533 718.257 5.21067 718.598 5.84C718.95 6.45867 719.126 7.18933 719.126 8.032C719.126 8.87467 718.95 9.61067 718.598 10.24C718.246 10.8587 717.766 11.3387 717.158 11.68C716.561 12.0213 715.889 12.192 715.142 12.192ZM715.142 11.04C715.601 11.04 716.027 10.928 716.422 10.704C716.817 10.48 717.137 10.144 717.382 9.696C717.627 9.248 717.75 8.69333 717.75 8.032C717.75 7.37067 717.627 6.816 717.382 6.368C717.147 5.92 716.833 5.584 716.438 5.36C716.043 5.136 715.622 5.024 715.174 5.024C714.715 5.024 714.289 5.136 713.894 5.36C713.499 5.584 713.179 5.92 712.934 6.368C712.689 6.816 712.566 7.37067 712.566 8.032C712.566 8.69333 712.689 9.248 712.934 9.696C713.179 10.144 713.494 10.48 713.878 10.704C714.273 10.928 714.694 11.04 715.142 11.04ZM727.869 12.192C727.208 12.192 726.658 12.08 726.221 11.856C725.784 11.632 725.458 11.3333 725.245 10.96C725.032 10.5867 724.925 10.1813 724.925 9.744C724.925 8.93333 725.234 8.30933 725.853 7.872C726.472 7.43467 727.314 7.216 728.381 7.216H730.525V7.12C730.525 6.42667 730.344 5.904 729.981 5.552C729.618 5.18933 729.133 5.008 728.525 5.008C728.002 5.008 727.549 5.14133 727.165 5.408C726.792 5.664 726.557 6.04267 726.461 6.544H725.085C725.138 5.968 725.33 5.48267 725.661 5.088C726.002 4.69333 726.424 4.39467 726.925 4.192C727.426 3.97867 727.96 3.872 728.525 3.872C729.634 3.872 730.466 4.17067 731.021 4.768C731.586 5.35467 731.869 6.13867 731.869 7.12V12H730.669L730.589 10.576C730.365 11.024 730.034 11.408 729.597 11.728C729.17 12.0373 728.594 12.192 727.869 12.192ZM728.077 11.056C728.589 11.056 729.026 10.9227 729.389 10.656C729.762 10.3893 730.045 10.0427 730.237 9.616C730.429 9.18933 730.525 8.74133 730.525 8.272V8.256H728.493C727.704 8.256 727.144 8.39467 726.813 8.672C726.493 8.93867 726.333 9.27467 726.333 9.68C726.333 10.096 726.482 10.432 726.781 10.688C727.09 10.9333 727.522 11.056 728.077 11.056ZM733.885 12V0.48H735.229V12H733.885ZM737.432 12V4.064H738.648L738.744 5.216C739 4.78933 739.341 4.45867 739.768 4.224C740.195 3.98933 740.675 3.872 741.208 3.872C741.837 3.872 742.376 4 742.824 4.256C743.283 4.512 743.635 4.90133 743.88 5.424C744.157 4.944 744.536 4.56533 745.016 4.288C745.507 4.01067 746.035 3.872 746.6 3.872C747.549 3.872 748.307 4.16 748.872 4.736C749.437 5.30133 749.72 6.176 749.72 7.36V12H748.392V7.504C748.392 6.68267 748.227 6.064 747.896 5.648C747.565 5.232 747.091 5.024 746.472 5.024C745.832 5.024 745.299 5.27467 744.872 5.776C744.456 6.26667 744.248 6.97067 744.248 7.888V12H742.904V7.504C742.904 6.68267 742.739 6.064 742.408 5.648C742.077 5.232 741.603 5.024 740.984 5.024C740.355 5.024 739.827 5.27467 739.4 5.776C738.984 6.26667 738.776 6.97067 738.776 7.888V12H737.432ZM755.361 12.192C754.614 12.192 753.942 12.0213 753.345 11.68C752.747 11.3387 752.273 10.8587 751.921 10.24C751.579 9.61067 751.409 8.87467 751.409 8.032C751.409 7.18933 751.585 6.45867 751.937 5.84C752.289 5.21067 752.763 4.72533 753.361 4.384C753.969 4.04267 754.646 3.872 755.393 3.872C756.139 3.872 756.811 4.04267 757.409 4.384C758.006 4.72533 758.475 5.21067 758.817 5.84C759.169 6.45867 759.345 7.18933 759.345 8.032C759.345 8.87467 759.169 9.61067 758.817 10.24C758.465 10.8587 757.985 11.3387 757.377 11.68C756.779 12.0213 756.107 12.192 755.361 12.192ZM755.361 11.04C755.819 11.04 756.246 10.928 756.641 10.704C757.035 10.48 757.355 10.144 757.601 9.696C757.846 9.248 757.969 8.69333 757.969 8.032C757.969 7.37067 757.846 6.816 757.601 6.368C757.366 5.92 757.051 5.584 756.657 5.36C756.262 5.136 755.841 5.024 755.393 5.024C754.934 5.024 754.507 5.136 754.113 5.36C753.718 5.584 753.398 5.92 753.153 6.368C752.907 6.816 752.785 7.37067 752.785 8.032C752.785 8.69333 752.907 9.248 753.153 9.696C753.398 10.144 753.713 10.48 754.097 10.704C754.491 10.928 754.913 11.04 755.361 11.04ZM764.253 12.192C763.304 12.192 762.515 11.952 761.885 11.472C761.256 10.992 760.888 10.3413 760.781 9.52H762.157C762.243 9.936 762.461 10.2987 762.813 10.608C763.176 10.9067 763.661 11.056 764.269 11.056C764.835 11.056 765.251 10.9387 765.517 10.704C765.784 10.4587 765.917 10.1707 765.917 9.84C765.917 9.36 765.741 9.04 765.389 8.88C765.048 8.72 764.563 8.576 763.933 8.448C763.507 8.36267 763.08 8.24 762.653 8.08C762.227 7.92 761.869 7.696 761.581 7.408C761.293 7.10933 761.149 6.72 761.149 6.24C761.149 5.54667 761.405 4.98133 761.917 4.544C762.44 4.096 763.144 3.872 764.029 3.872C764.872 3.872 765.56 4.08533 766.093 4.512C766.637 4.928 766.952 5.52533 767.037 6.304H765.709C765.656 5.89867 765.48 5.584 765.181 5.36C764.893 5.12533 764.504 5.008 764.013 5.008C763.533 5.008 763.16 5.10933 762.893 5.312C762.637 5.51467 762.509 5.78133 762.509 6.112C762.509 6.432 762.675 6.68267 763.005 6.864C763.347 7.04533 763.805 7.2 764.381 7.328C764.872 7.43467 765.336 7.568 765.773 7.728C766.221 7.87733 766.584 8.10667 766.861 8.416C767.149 8.71467 767.293 9.152 767.293 9.728C767.304 10.4427 767.032 11.0347 766.477 11.504C765.933 11.9627 765.192 12.192 764.253 12.192ZM771.99 12C771.265 12 770.694 11.824 770.278 11.472C769.862 11.12 769.654 10.4853 769.654 9.568V5.2H768.278V4.064H769.654L769.83 2.16H770.998V4.064H773.334V5.2H770.998V9.568C770.998 10.0693 771.099 10.4107 771.302 10.592C771.505 10.7627 771.862 10.848 772.374 10.848H773.206V12H771.99ZM781.916 12.192C781.255 12.192 780.705 12.08 780.268 11.856C779.831 11.632 779.505 11.3333 779.292 10.96C779.079 10.5867 778.972 10.1813 778.972 9.744C778.972 8.93333 779.281 8.30933 779.9 7.872C780.519 7.43467 781.361 7.216 782.428 7.216H784.572V7.12C784.572 6.42667 784.391 5.904 784.028 5.552C783.665 5.18933 783.18 5.008 782.572 5.008C782.049 5.008 781.596 5.14133 781.212 5.408C780.839 5.664 780.604 6.04267 780.508 6.544H779.132C779.185 5.968 779.377 5.48267 779.708 5.088C780.049 4.69333 780.471 4.39467 780.972 4.192C781.473 3.97867 782.007 3.872 782.572 3.872C783.681 3.872 784.513 4.17067 785.068 4.768C785.633 5.35467 785.916 6.13867 785.916 7.12V12H784.716L784.636 10.576C784.412 11.024 784.081 11.408 783.644 11.728C783.217 12.0373 782.641 12.192 781.916 12.192ZM782.124 11.056C782.636 11.056 783.073 10.9227 783.436 10.656C783.809 10.3893 784.092 10.0427 784.284 9.616C784.476 9.18933 784.572 8.74133 784.572 8.272V8.256H782.54C781.751 8.256 781.191 8.39467 780.86 8.672C780.54 8.93867 780.38 9.27467 780.38 9.68C780.38 10.096 780.529 10.432 780.828 10.688C781.137 10.9333 781.569 11.056 782.124 11.056ZM787.932 12V4.064H789.148L789.228 5.488C789.484 4.98667 789.852 4.592 790.332 4.304C790.812 4.016 791.356 3.872 791.964 3.872C792.903 3.872 793.649 4.16 794.204 4.736C794.769 5.30133 795.052 6.176 795.052 7.36V12H793.708V7.504C793.708 5.85067 793.025 5.024 791.66 5.024C790.977 5.024 790.407 5.27467 789.948 5.776C789.5 6.26667 789.276 6.97067 789.276 7.888V12H787.932ZM797.718 15.52L799.686 11.232H799.222L796.07 4.064H797.526L800.15 10.24L802.934 4.064H804.326L799.126 15.52H797.718ZM813.579 12.192C812.79 12.192 812.096 12.0107 811.499 11.648C810.912 11.2853 810.454 10.7893 810.123 10.16C809.803 9.53067 809.643 8.816 809.643 8.016C809.643 7.216 809.808 6.50667 810.139 5.888C810.47 5.25867 810.928 4.768 811.515 4.416C812.102 4.05333 812.795 3.872 813.595 3.872C814.246 3.872 814.822 4.00533 815.323 4.272C815.824 4.53867 816.214 4.912 816.491 5.392V0.48H817.835V12H816.619L816.491 10.688C816.235 11.072 815.867 11.4187 815.387 11.728C814.907 12.0373 814.304 12.192 813.579 12.192ZM813.723 11.024C814.256 11.024 814.726 10.9013 815.131 10.656C815.547 10.4 815.867 10.048 816.091 9.6C816.326 9.152 816.443 8.62933 816.443 8.032C816.443 7.43467 816.326 6.912 816.091 6.464C815.867 6.016 815.547 5.66933 815.131 5.424C814.726 5.168 814.256 5.04 813.723 5.04C813.2 5.04 812.731 5.168 812.315 5.424C811.91 5.66933 811.59 6.016 811.355 6.464C811.131 6.912 811.019 7.43467 811.019 8.032C811.019 8.62933 811.131 9.152 811.355 9.6C811.59 10.048 811.91 10.4 812.315 10.656C812.731 10.9013 813.2 11.024 813.723 11.024ZM823.594 12.192C822.837 12.192 822.165 12.0213 821.578 11.68C820.991 11.328 820.527 10.8427 820.186 10.224C819.855 9.60533 819.69 8.87467 819.69 8.032C819.69 7.2 819.855 6.47467 820.186 5.856C820.517 5.22667 820.975 4.74133 821.562 4.4C822.159 4.048 822.847 3.872 823.626 3.872C824.394 3.872 825.055 4.048 825.61 4.4C826.175 4.74133 826.607 5.19467 826.906 5.76C827.205 6.32533 827.354 6.93333 827.354 7.584C827.354 7.70133 827.349 7.81867 827.338 7.936C827.338 8.05333 827.338 8.18667 827.338 8.336H821.018C821.05 8.944 821.189 9.45067 821.434 9.856C821.69 10.2507 822.005 10.5493 822.378 10.752C822.762 10.9547 823.167 11.056 823.594 11.056C824.149 11.056 824.613 10.928 824.986 10.672C825.359 10.416 825.631 10.0693 825.802 9.632H827.13C826.917 10.368 826.506 10.9813 825.898 11.472C825.301 11.952 824.533 12.192 823.594 12.192ZM823.594 5.008C822.954 5.008 822.383 5.20533 821.882 5.6C821.391 5.984 821.109 6.54933 821.034 7.296H826.026C825.994 6.58133 825.749 6.02133 825.29 5.616C824.831 5.21067 824.266 5.008 823.594 5.008ZM832.175 12.192C831.226 12.192 830.437 11.952 829.807 11.472C829.178 10.992 828.81 10.3413 828.703 9.52H830.079C830.165 9.936 830.383 10.2987 830.735 10.608C831.098 10.9067 831.583 11.056 832.191 11.056C832.757 11.056 833.173 10.9387 833.439 10.704C833.706 10.4587 833.839 10.1707 833.839 9.84C833.839 9.36 833.663 9.04 833.311 8.88C832.97 8.72 832.485 8.576 831.855 8.448C831.429 8.36267 831.002 8.24 830.575 8.08C830.149 7.92 829.791 7.696 829.503 7.408C829.215 7.10933 829.071 6.72 829.071 6.24C829.071 5.54667 829.327 4.98133 829.839 4.544C830.362 4.096 831.066 3.872 831.951 3.872C832.794 3.872 833.482 4.08533 834.015 4.512C834.559 4.928 834.874 5.52533 834.959 6.304H833.631C833.578 5.89867 833.402 5.584 833.103 5.36C832.815 5.12533 832.426 5.008 831.935 5.008C831.455 5.008 831.082 5.10933 830.815 5.312C830.559 5.51467 830.431 5.78133 830.431 6.112C830.431 6.432 830.597 6.68267 830.927 6.864C831.269 7.04533 831.727 7.2 832.303 7.328C832.794 7.43467 833.258 7.568 833.695 7.728C834.143 7.87733 834.506 8.10667 834.783 8.416C835.071 8.71467 835.215 9.152 835.215 9.728C835.226 10.4427 834.954 11.0347 834.399 11.504C833.855 11.9627 833.114 12.192 832.175 12.192ZM837.951 2.304C837.685 2.304 837.461 2.21867 837.279 2.048C837.109 1.86667 837.023 1.64267 837.023 1.376C837.023 1.12 837.109 0.906666 837.279 0.735999C837.461 0.565333 837.685 0.48 837.951 0.48C838.207 0.48 838.426 0.565333 838.607 0.735999C838.789 0.906666 838.879 1.12 838.879 1.376C838.879 1.64267 838.789 1.86667 838.607 2.048C838.426 2.21867 838.207 2.304 837.951 2.304ZM837.279 12V4.064H838.623V12H837.279ZM844.099 9.504C843.651 9.504 843.241 9.44533 842.867 9.328L842.067 10.08C842.185 10.1653 842.329 10.24 842.499 10.304C842.681 10.3573 842.937 10.4107 843.267 10.464C843.598 10.5067 844.062 10.5547 844.659 10.608C845.726 10.6827 846.489 10.928 846.947 11.344C847.406 11.76 847.635 12.304 847.635 12.976C847.635 13.4347 847.507 13.872 847.251 14.288C847.006 14.704 846.622 15.0453 846.099 15.312C845.587 15.5787 844.926 15.712 844.115 15.712C843.401 15.712 842.766 15.616 842.211 15.424C841.657 15.2427 841.225 14.96 840.915 14.576C840.606 14.2027 840.451 13.728 840.451 13.152C840.451 12.8533 840.531 12.528 840.691 12.176C840.851 11.8347 841.15 11.5093 841.587 11.2C841.353 11.104 841.15 11.0027 840.979 10.896C840.819 10.7787 840.67 10.6507 840.531 10.512V10.144L841.891 8.8C841.262 8.26667 840.947 7.56267 840.947 6.688C840.947 6.16533 841.07 5.69067 841.315 5.264C841.561 4.83733 841.918 4.50133 842.387 4.256C842.857 4 843.427 3.872 844.099 3.872C844.558 3.872 844.974 3.936 845.347 4.064H848.275V5.072L846.787 5.136C847.097 5.584 847.251 6.10133 847.251 6.688C847.251 7.21067 847.123 7.68533 846.867 8.112C846.622 8.53867 846.265 8.88 845.795 9.136C845.337 9.38133 844.771 9.504 844.099 9.504ZM844.099 8.4C844.665 8.4 845.113 8.256 845.443 7.968C845.785 7.66933 845.955 7.24267 845.955 6.688C845.955 6.144 845.785 5.728 845.443 5.44C845.113 5.14133 844.665 4.992 844.099 4.992C843.523 4.992 843.065 5.14133 842.723 5.44C842.393 5.728 842.227 6.144 842.227 6.688C842.227 7.24267 842.393 7.66933 842.723 7.968C843.065 8.256 843.523 8.4 844.099 8.4ZM841.763 13.024C841.763 13.5573 841.987 13.952 842.435 14.208C842.883 14.4747 843.443 14.608 844.115 14.608C844.777 14.608 845.305 14.464 845.699 14.176C846.105 13.888 846.307 13.504 846.307 13.024C846.307 12.6827 846.169 12.384 845.891 12.128C845.614 11.8827 845.102 11.7387 844.355 11.696C843.769 11.6533 843.262 11.6 842.835 11.536C842.398 11.7707 842.11 12.0213 841.971 12.288C841.833 12.5653 841.763 12.8107 841.763 13.024ZM849.792 12V4.064H851.008L851.088 5.488C851.344 4.98667 851.712 4.592 852.192 4.304C852.672 4.016 853.216 3.872 853.824 3.872C854.762 3.872 855.509 4.16 856.064 4.736C856.629 5.30133 856.911 6.176 856.911 7.36V12H855.568V7.504C855.568 5.85067 854.885 5.024 853.52 5.024C852.837 5.024 852.266 5.27467 851.808 5.776C851.36 6.26667 851.136 6.97067 851.136 7.888V12H849.792ZM859.412 12.08C859.145 12.08 858.921 11.9947 858.74 11.824C858.569 11.6427 858.484 11.424 858.484 11.168C858.484 10.912 858.569 10.6987 858.74 10.528C858.921 10.3467 859.145 10.256 859.412 10.256C859.668 10.256 859.881 10.3467 860.052 10.528C860.233 10.6987 860.324 10.912 860.324 11.168C860.324 11.424 860.233 11.6427 860.052 11.824C859.881 11.9947 859.668 12.08 859.412 12.08Z" fill="#151439" fill-opacity="0.4"/>
</svg>
